<?xml version="1.0" encoding="utf-8"?>

<!DOCTYPE svg PUBLIC "-//W3C//DTD SVG 1.1//EN" "http://www.w3.org/Graphics/SVG/1.1/DTD/svg11.dtd">
<svg version="1.1" id="Layer_1" xmlns="http://www.w3.org/2000/svg" xmlns:xlink="http://www.w3.org/1999/xlink" x="0px" y="0px"
	 viewBox="0 0 2000 1333" enable-background="new 0 0 2000 1333" xml:space="preserve">
<g>
	<path d="M1758,1334c-573.6666,0-1147.3333,0-1721,0c3.8847-6.1766,8.4658-11.9023,10.5762-19.1353
		c6.5236-22.3582,13.4173-44.6088,19.9006-66.9785c38.3543-132.3364,80.0831-263.6474,120.0608-395.4903
		c11.6815-38.5247,25.8952-75.9167,47.5293-110.1548c19.5594-30.9547,44.0828-57.6594,70.5138-82.7099
		c25.7907-24.4438,50.5046-49.8561,72.8895-77.5068c14.675-18.1273,29.3347-36.2792,45.546-53.108
		c14.4232-14.9725,31.2811-26.0467,51.4406-31.2486c29.8285-7.6969,59.9301-14.0692,90.73-16.731
		c16.7413-1.4468,33.5339-2.832,49.9612-6.6861c12.1624-2.8535,15.9951-7.524,16.8278-20.0204
		c0.1661-2.4934,0.3203-4.9955,0.2999-7.4922c-0.1098-13.4444,4.2141-25.9139,8.8376-38.2062
		c3.8263-10.1725,9.3821-12.9229,19.9565-10.537c17.1514,3.87,33.0223,11.2755,49.0548,18.235
		c9.9536,4.3207,18.7704,9.9954,25.4288,18.754c1.4943,1.9655,3.4091,3.6606,5.3245,5.2454c3.2188,2.663,6.604,2.951,9.9316,0.0684
		c3.7761-3.271,7.7018-6.3869,11.2971-9.8462c29.1011-28.0001,55.5106-58.4526,81.7432-89.1064
		c24.1666-28.2397,42.3054-59.6789,53.7258-95.0185c8.9001-27.5408,22.3565-53.0337,35.5366-78.6287
		c8.0535-15.6394,18.4658-29.719,30.6757-42.3776c30.3928-31.5098,65.1246-57.5112,102.4969-80.1001
		c9.6975-5.8615,19.7423-11.0712,30.2666-15.3383c15.9554-6.4691,32.4393-8.4668,49.4835-6.2135
		c23.9236,3.1628,48.0944,4.3385,71.8038,9.2529c29.7295,6.1621,56.5323,17.6072,76.8624,41.2531
		c5.3258,6.1944,10.7125,12.3414,15.3788,19.048c22.5415,32.3968,43.4187,65.9324,67.3872,97.3618
		c11.39,14.9355,22.7251,30.0861,28.3602,48.4767c0.2401,0.7834,0.683,1.5227,1.1256,2.2231
		c2.3718,3.7539,4.3394,3.9371,6.668,0.2241c2.025-3.2291,3.7679-6.6831,5.2366-10.204
		c3.9904-9.5666,10.4701-16.9729,19.1372-22.4692c17.7489-11.2556,34.139-23.8438,44.5265-42.7975
		c2.9021-5.2955,8.0426-6.1682,13.5065-4.9219c13.8007,3.1479,19.8062,11.0001,19.3394,25
		c-0.0111,0.3331-0.0229,0.6661-0.0281,0.9993c-0.0542,3.5243,1.5782,4.0755,4.3506,2.4015
		c2.4232-1.4632,4.7827-3.0317,7.1886-4.5242c3.9135-2.428,8.1555-3.8564,12.7876-3.6006
		c8.5133,0.4701,16.8809,1.8699,24.9653,4.644c6.5201,2.2373,7.9192,3.9609,7.7042,10.9916
		c-0.1528,4.9991,1.9214,7.2923,6.7021,8.0074c9.9254,1.4848,19.5574,1.1489,28.8313-3.2451
		c4.0543-1.921,8.3914-3.2422,12.4615-5.1335c13.683-6.3582,25.5945-3.0814,36.3733,6.4859
		c12.7427,11.3107,13.1309,15.9357,6.0847,26.2839c-2.2043,3.2372-0.6376,5.0137,2.9119,5.103
		c5.1584,0.1299,10.3425,0.3328,15.4794-0.0219c7.4229-0.5126,12.5647,2.4906,15.6207,9.1125
		c1.4109,3.0568,3.5646,4.9519,6.6691,6.2796c8.7539,3.744,15.7643,9.8923,21.9812,16.9526
		c4.7239,5.3648,5.9475,11.3986,2.7108,18.0365c-1.5321,3.1418-2.8136,6.4322-4.6136,9.4105
		c-2.4165,3.9985-1.4452,5.5811,2.8422,7.6233c11.3503,5.4063,19.8406,14.5087,13.5918,28.1722
		c-0.6124,1.339-0.8188,2.8724-1.1483,4.3304c-0.7335,3.246,0.5392,5.5382,3.4935,6.8969c1.6594,0.7632,3.3857,1.3815,5.0879,2.0503
		c6.5253,2.5638,8.5812,6.2202,7.6796,13.1962c-0.5039,3.8972-2.7394,6.6934-5.2827,9.3889
		c-18.3066,19.4008-37.4717,37.9355-56.7817,56.3244c-1.95,1.8569-4.0582,3.5627-6.6654,4.2894
		c-4.0653,1.1331-6.9625,3.7142-9.5852,6.8369c-6.4296,7.6556-12.9827,15.2075-19.3953,22.877
		c-12.609,15.0804-24.9503,30.3482-40.0952,43.1359c-9.9003,8.3593-15.7426,18.8992-13.0676,32.6219
		c1.2418,6.3704,2.0828,12.8193,3.3502,19.184c10.0421,50.4302,21.7891,100.522,29.9984,151.3161
		c7.2126,44.6256,12.6835,89.4135,11.3142,134.7404c-1.4906,49.3508-7.373,98.292-14.3942,147.1118
		c-6.7308,46.8021-14.781,93.3857-23.4868,139.8539c-2.8652,15.2925-5.7152,30.375-0.3617,45.7819
		c0.9496,2.7325,1.8555,4.5608,4.1957,6.0801c14.8138,9.6178,29.6606,19.2323,43.4154,30.3276
		c46.5861,37.5787,91.0072,77.646,135.0189,118.1724c3.25,2.9926,6.226,6.0518,11.2247,5.1407
		c1.0524-0.192,2.5562-0.116,2.6143,1.5393c0.0566,1.6172-1.313,1.5933-2.4692,1.8242c-0.5828,0.1163-1.0964,0.5793-1.6414,0.8856
		c-1.6666,0-3.3334,0-5,0C1785.3334,1332.4126,1771.6666,1333.1478,1758,1334z M1273.9353,535.0049
		c0.1204,22.676,0.1472,44.4785-2.9163,66.1507c-1.3485,9.5399-1.0391,19.329-4.1469,28.6006
		c-3.8015,11.3418-11.6589,16.0837-23.4045,14.7008c-10.5189-1.2384-20.3154-5.0677-30.3828-7.9438
		c-6.1884-1.768-7.3014-0.9675-6.4823,5.4211c0.8176,6.3766-1.2501,11.4078-5.832,15.6708
		c-9.0415,8.412-19.2167,12.8337-31.8893,10.0857c-8.0378-1.743-9.506-0.7903-13.1855,6.1395
		c-5.1451,9.6898-22.4132,13.2278-30.9048,6.0167c-2.8552-2.4248-3.8137-1.9968-5.2192,1.0964
		c-3.3728,7.4228-7.0104,14.7249-10.5115,22.0898c-8.4838,17.846-35.3361,28.9877-55.8701,17.3787
		c-6.3822-3.6083-12.7087-7.2853-18.9426-11.1365c-1.0349-0.6395-2.1852-1.8171-3.5839-0.551
		c-1.1007,0.9965-0.8291,2.1577-0.1251,3.1552c6.3285,8.9675,12.0122,18.6267,24.3779,20.5533
		c6.7981,1.0592,11.9008,4.9077,15.5129,10.7545c2.8884,4.6752,5.8519,9.3044,8.7113,13.9971
		c1.7317,2.8421,4.0023,4.0204,7.4608,3.7799c7.2391-0.5035,9.2245,0.8741,10.8962,7.9229
		c1.4844,6.2587,3.985,11.9603,7.4603,17.3182c5.05,7.7858,6.8572,8.5129,15.9736,6.1258c5.9088-1.5471,9.1912-0.0189,11.647,5.5087
		c0.6742,1.5175,1.295,3.0802,1.7288,4.6796c2.1835,8.0525,7.0297,13.4163,15.2507,15.5692
		c1.9215,0.5032,3.7346,1.4076,5.6199,2.0635c40.4091,14.058,81.5681,25.6828,122.5659,37.8362
		c23.6278,7.0042,47.7056,12.2153,71.5703,18.272c11.1426,2.8278,14.8369,0.8281,19.6074-9.576
		c1.1096-2.42,2.1499-4.8749,3.1376-7.3474c11.3708-28.4629,20.7976-57.6019,29.5432-86.9437
		c10.355-34.7418,22.0702-69.2237,23.8431-105.9126c1.241-25.6788,2.3206-51.6018-4.0017-76.606
		c-7.4971-29.6503-10.3671-59.6222-11.6333-89.9485c-0.5773-13.8234,0.3625-27.6583-0.6836-41.4795
		c-0.4464-5.8964-2.7323-10.5161-7.2969-14.1533c-3.0131-2.4008-6.449-4.1155-9.6602-6.185
		c-8.2161-5.295-15.3446-4.0735-22.2804,2.5125c-14.9513,14.1971-28.7461,28.8846-35.4388,49.3022
		c-5.1139,15.6012-14.3965,29.316-25.3962,41.517C1299.0637,542.5215,1284.5178,543.9476,1273.9353,535.0049z M980.5024,1270.7963
		c0.3505,9.2555,1.1544,16.189,2.1977,23.1111c0.5162,3.4249,1.6181,4.2726,4.7982,2.4528
		c30.1864-17.275,61.1434-33.3562,89.2631-53.9473c29.8062-21.826,57.5969-46.3489,88.5591-66.6609
		c2.5386-1.6655,4.2253-4.2017,6.1315-6.5208c2.2491-2.7367,1.3445-3.5917-1.7252-4.5496
		c-48.098-15.0085-96.1649-30.1166-144.2133-45.2838c-2.6182-0.8265-4.2834-0.3967-6.0385,1.7104
		c-5.5428,6.6549-10.9713,13.3802-16.0718,20.3927c-5.0402,6.9296-6.4326,14.413-4.9694,22.6954
		c0.9614,5.4426,1.0734,10.9214-0.1346,16.3752c-3.9556,17.859-7.9879,35.7018-11.804,53.5906
		C983.7561,1247.0029,980.5724,1259.7946,980.5024,1270.7963z"/>
</g>
</svg>
